<svg version="1.2" xmlns="http://www.w3.org/2000/svg" viewBox="0 0 375 120" width="375" height="120">
	<title>Logo-Sideways-Large-svg</title>
	<defs>
		<clipPath clipPathUnits="userSpaceOnUse" id="cp1">
			<path d="m22 12.01h49v70.99h-49z"/>
		</clipPath>
	</defs>
	<style>
		.s0 { fill: #022179 } 
		.s1 { fill: #737373 } 
		.s2 { fill: #0ec6cb } 
		.s3 { fill: #39a9f1 } 
	</style>
	<g id="Layer">
		<g id="Layer">
			<g id="Layer">
				<path id="Layer" fill-rule="evenodd" class="s0" d="m110.2 37.2h11.3q5.4 0 8.3 2.5 3 2.6 3 7.2 0 4.8-3 7.5-2.9 2.6-8.3 2.6h-6.5v8.6h-4.8zm4.8 4.3v11.3h6.3q6.9 0 6.9-5.8 0-5.5-6.9-5.5z"/>
			</g>
		</g>
	</g>
	<g id="Layer">
		<g id="Layer">
			<g id="Layer">
				<path id="Layer" class="s0" d="m163.8 37.2v16.6q0 5.6-3.3 8.8-3.3 3.2-9.1 3.2-5.7 0-9.1-3.2-3.3-3.2-3.3-8.8v-16.6h4.8v16.6q0 3.6 2.1 5.7 2 2 5.6 2 3.4 0 5.5-2 2-2.1 2-5.7v-16.6z"/>
			</g>
		</g>
	</g>
	<g id="Layer">
		<g id="Layer">
			<g id="Layer">
				<path id="Layer" class="s0" d="m177.5 61.3h12.3v4.3h-17.1v-28.4h4.8z"/>
			</g>
		</g>
	</g>
	<g id="Layer">
		<g id="Layer">
			<g id="Layer">
				<path id="Layer" class="s0" d="m205.8 37q5.5 0 10 2.9l-2 4.2q-4.4-2.6-8.4-2.6-2.1 0-3.4 0.8-1.2 0.7-1.2 2.1 0 1.5 1.1 2.5 1.2 1 2.9 1.4 1.7 0.5 3.7 1.2 2 0.7 3.7 1.5 1.7 0.8 2.8 2.5 1.1 1.7 1.1 4.1 0 3.7-3 5.9-3 2.3-7.7 2.3-3.3 0-6.3-1.2-3.1-1.3-5.3-3.3l2-4.2q2.2 2 4.8 3.1 2.6 1.1 4.9 1.1 2.5 0 3.9-0.9 1.4-0.9 1.4-2.6 0-1.4-1.1-2.4-1.2-1-2.9-1.5-1.7-0.5-3.7-1.1-2-0.7-3.7-1.5-1.7-0.7-2.8-2.4-1.2-1.6-1.2-4 0-3.6 2.9-5.8 2.8-2.1 7.5-2.1z"/>
			</g>
		</g>
	</g>
	<g id="Layer">
		<g id="Layer">
			<g id="Layer">
				<path id="Layer" class="s0" d="m244.1 41.5h-15.5v7.7h13.9v4.3h-13.9v7.8h16v4.3h-20.8v-28.4h20.3z"/>
			</g>
		</g>
	</g>
	<g id="Layer">
		<g id="Layer">
			<g id="Layer">
				<path id="Layer" class="s0" d="m271.9 41.5h-9v24.1h-4.8v-24.1h-9v-4.3h22.8z"/>
			</g>
		</g>
	</g>
	<g id="Layer">
		<g id="Layer">
			<g id="Layer">
				<path id="Layer" fill-rule="evenodd" class="s0" d="m296.1 65.6l-5.2-8.6q-0.4 0-1.3 0h-6.7v8.6h-4.8v-28.4h11.5q5.5 0 8.5 2.5 3 2.6 3 7.2 0 3.4-1.5 5.8-1.6 2.3-4.4 3.4l6.4 9.5zm-13.3-12.9h6.8q6.9 0 6.9-5.7 0-5.5-6.9-5.5h-6.8z"/>
			</g>
		</g>
	</g>
	<g id="Layer">
		<g id="Layer">
			<g id="Layer">
				<path id="Layer" fill-rule="evenodd" class="s0" d="m327.9 59.2h-14.3l-2.8 6.4h-5l12.6-28.4h4.9l12.4 28.4h-5.1zm-1.8-4.2l-5.4-12.7-5.3 12.7z"/>
			</g>
		</g>
	</g>
	<g id="Layer">
		<g id="Layer">
			<g id="Layer">
				<path id="Layer" class="s0" d="m346.4 65.6h-4.8v-28.4h4.8z"/>
			</g>
		</g>
	</g>
	<g id="Layer">
		<g id="Layer">
			<g id="Layer">
				<path id="Layer" class="s0" d="m360.7 61.3h12.3v4.3h-17.1v-28.4h4.8z"/>
			</g>
		</g>
	</g>
	<g id="Layer">
		<g id="Layer">
			<g id="Layer">
				<path id="Layer" class="s1" d="m185.5 80.2q2 0 3.7 1.1l-0.8 1.5q-1.5-0.9-3-0.9-0.8 0-1.3 0.2-0.4 0.3-0.4 0.8 0 0.6 0.4 0.9 0.4 0.4 1 0.6 0.7 0.1 1.4 0.4 0.7 0.3 1.4 0.6 0.6 0.2 1 0.9 0.4 0.6 0.4 1.4 0 1.4-1.1 2.2-1.1 0.9-2.8 0.9-1.2 0-2.3-0.5-1.2-0.4-2-1.2l0.8-1.5q0.8 0.7 1.7 1.1 1 0.4 1.8 0.4 0.9 0 1.4-0.3 0.6-0.4 0.6-1 0-0.5-0.5-0.9-0.4-0.3-1-0.5-0.6-0.2-1.4-0.4-0.7-0.3-1.3-0.5-0.6-0.3-1.1-0.9-0.4-0.6-0.4-1.5 0-1.3 1.1-2.1 1-0.8 2.7-0.8z"/>
			</g>
		</g>
	</g>
	<g id="Layer">
		<g id="Layer">
			<g id="Layer">
				<path id="Layer" fill-rule="evenodd" class="s1" d="m196.1 81.7q1.6-1.5 3.9-1.5 2.4 0 4 1.5 1.5 1.5 1.5 3.8 0 2.2-1.5 3.7-1.6 1.6-4 1.6-2.3 0-3.9-1.6-1.6-1.5-1.6-3.7 0-2.3 1.6-3.8zm3.9 0.1q-1.5 0-2.6 1.1-1.1 1-1.1 2.6 0 1.5 1.1 2.6 1.1 1.1 2.6 1.1 1.6 0 2.6-1.1 1.1-1.1 1.1-2.6 0-1.6-1.1-2.6-1-1.1-2.6-1.1z"/>
			</g>
		</g>
	</g>
	<g id="Layer">
		<g id="Layer">
			<g id="Layer">
				<path id="Layer" class="s1" d="m213.2 89.1h4.5v1.6h-6.3v-10.4h1.8z"/>
			</g>
		</g>
	</g>
	<g id="Layer">
		<g id="Layer">
			<g id="Layer">
				<path id="Layer" class="s1" d="m232.2 80.3v6.1q0 2-1.2 3.2-1.2 1.2-3.3 1.2-2.1 0-3.3-1.2-1.3-1.2-1.3-3.2v-6.1h1.8v6.1q0 1.3 0.8 2 0.7 0.8 2 0.8 1.3 0 2-0.8 0.8-0.7 0.8-2v-6.1z"/>
			</g>
		</g>
	</g>
	<g id="Layer">
		<g id="Layer">
			<g id="Layer">
				<path id="Layer" class="s1" d="m245.8 81.9h-3.3v8.8h-1.7v-8.8h-3.3v-1.6h8.3z"/>
			</g>
		</g>
	</g>
	<g id="Layer">
		<g id="Layer">
			<g id="Layer">
				<path id="Layer" class="s1" d="m253.1 90.7h-1.7v-10.4h1.7z"/>
			</g>
		</g>
	</g>
	<g id="Layer">
		<g id="Layer">
			<g id="Layer">
				<path id="Layer" fill-rule="evenodd" class="s1" d="m260.6 81.7q1.6-1.5 3.9-1.5 2.3 0 3.9 1.5 1.6 1.5 1.6 3.8 0 2.2-1.6 3.7-1.6 1.6-3.9 1.6-2.3 0-3.9-1.6-1.6-1.5-1.6-3.7 0-2.3 1.6-3.8zm3.9 0.1q-1.5 0-2.6 1.1-1.1 1-1.1 2.6 0 1.5 1.1 2.6 1.1 1.1 2.6 1.1 1.5 0 2.6-1.1 1.1-1.1 1.1-2.6 0-1.6-1.1-2.6-1.1-1.1-2.6-1.1z"/>
			</g>
		</g>
	</g>
	<g id="Layer">
		<g id="Layer">
			<g id="Layer">
				<path id="Layer" class="s1" d="m284.9 90.7h-1.7l-5.5-7.5v7.5h-1.8v-10.4h1.7l5.6 7.5v-7.5h1.7z"/>
			</g>
		</g>
	</g>
	<g id="Layer">
		<g id="Layer">
			<g id="Layer">
				<path id="Layer" class="s1" d="m295.1 80.2q2 0 3.7 1.1l-0.8 1.5q-1.6-0.9-3-0.9-0.8 0-1.3 0.2-0.4 0.3-0.4 0.8 0 0.6 0.4 0.9 0.4 0.4 1 0.6 0.7 0.1 1.4 0.4 0.7 0.3 1.3 0.6 0.7 0.2 1.1 0.9 0.4 0.6 0.4 1.4 0 1.4-1.1 2.2-1.1 0.9-2.8 0.9-1.2 0-2.4-0.5-1.1-0.4-1.9-1.2l0.8-1.5q0.8 0.7 1.7 1.1 0.9 0.4 1.8 0.4 0.9 0 1.4-0.3 0.5-0.4 0.5-1 0-0.5-0.4-0.9-0.4-0.3-1-0.5-0.6-0.2-1.4-0.4-0.7-0.3-1.3-0.5-0.7-0.3-1.1-0.9-0.4-0.6-0.4-1.5 0-1.3 1-2.1 1.1-0.8 2.8-0.8z"/>
			</g>
		</g>
	</g>
	<path id="Layer" fill-rule="evenodd" class="s0" d="m84.6 97.6c-1.9-1.3-2.5-4-1.2-6 0.7-1 1.7-1.7 2.9-1.9q0.3-0.8 0.6-1.7 0-0.1 0-0.2 0.1-0.1 0.1-0.3 0.1-0.2 0.1-0.4 0.1-0.3 0.1-0.5 0.1-0.3 0.2-0.5 0-0.3 0.1-0.6 0-0.1 0-0.2 0-0.2 0.1-0.3 0-0.2 0.1-0.5 0-0.3 0-0.6 0.1-0.5 0.2-1.1 0-0.3 0-0.5 0-0.3 0-0.6 0.1-0.6 0.1-1.2 0-0.3-0.1-0.6 0-0.3 0-0.6 0-1.2-0.2-2.4-0.1-0.7-0.2-1.3-0.1-0.3-0.2-0.6 0-0.2 0-0.3-0.1-0.2-0.1-0.4-0.1-0.3-0.2-0.6-0.1-0.3-0.1-0.6l-0.1-0.2v-0.2q-0.1-0.1-0.1-0.3-0.2-0.3-0.3-0.6v-0.2l-0.1-0.1q0-0.2-0.1-0.3-0.1-0.4-0.2-0.7-0.1-0.1-0.2-0.3-0.1-0.2-0.1-0.3-0.2-0.3-0.3-0.6c-1.6-3.4-4-6.5-7.2-9.1-1.5-1.2-3.3-2.3-5.2-3.2-1.8-0.9-3.8-1.6-5.9-2q-0.4-0.1-0.8-0.1l-0.4-0.1-0.4-0.1q-0.4 0-0.8-0.1-0.4 0-0.8 0c-0.5-0.1-1-0.1-1.5-0.1h-0.2-0.2-0.4-0.4q-0.2 0-0.4 0c-2.2 0.1-4.3 0.5-6.4 1.1l-1.4-4.6c2.4-0.8 5-1.2 7.5-1.4q0.2 0 0.5 0h0.5 0.4 0.3 0.2c0.6 0 1.3 0 1.9 0.1q0.5 0 1 0.1 0.4 0 0.9 0.1h0.5l0.4 0.1q0.5 0.1 1 0.2c2.4 0.5 4.8 1.3 7 2.3 2.2 1.1 4.3 2.4 6.2 3.9 3.7 3 6.6 6.8 8.5 10.7 1.9 4 2.8 8.1 3 12q0 0.3 0 0.7 0 0.4 0 0.7 0 0.7 0 1.4 0 0.3 0 0.7-0.1 0.3-0.1 0.7 0 0.6-0.1 1.3-0.1 0.3-0.1 0.6-0.1 0.3-0.1 0.7-0.1 0.1-0.1 0.3 0 0.1 0 0.3-0.1 0.3-0.2 0.6 0 0.3-0.1 0.6-0.1 0.3-0.2 0.6 0 0.3-0.1 0.6 0 0.1-0.1 0.3 0 0.1-0.1 0.2-0.3 1.3-0.8 2.4c0.8 1.4 0.8 3.1-0.1 4.5-1.3 2-4 2.6-6 1.3zm3.8-5.8c-1.2-0.8-2.8-0.5-3.6 0.7-0.7 1.2-0.4 2.8 0.8 3.6 1.2 0.8 2.8 0.5 3.6-0.7 0.7-1.2 0.4-2.8-0.8-3.6zm-7.5-12.6q0-0.2 0-0.4-0.1-0.4-0.1-0.8c-0.2-1-0.4-2.1-0.6-2.8q-0.1-0.3-0.2-0.6-0.1-0.2-0.1-0.3-0.2-0.4-0.2-0.4l2-0.7q0 0 0.1 0.4 0.1 0.2 0.1 0.4 0.1 0.3 0.2 0.6c0.3 0.8 0.5 2 0.7 3.1q0.1 0.5 0.1 0.9 0 0.2 0 0.4 0.1 0.2 0.1 0.4 0 0.4 0 0.8 0 0.4 0 0.7 0 0.3 0 0.6 0 0.3-0.1 0.5 0 0.2 0 0.3 0 0.1 0 0.1l-2-0.2q0 0 0-0.1 0-0.1 0-0.3 0-0.1 0-0.4 0-0.2 0-0.5 0-0.3 0-0.7 0-0.3 0-0.7 0-0.1 0-0.3zm21-0.2q0.1 3.1-0.2 6.2-0.4 3-1.1 5.8-0.8 2.8-1.8 5.2-1.1 2.4-2.3 4.4-0.2 0.5-0.5 1-0.3 0.5-0.6 0.9-0.1 0.2-0.3 0.4c0.3 1 0.1 2-0.5 2.8-1.1 1.3-3 1.6-4.4 0.5-1.3-1.1-1.5-3-0.5-4.4 0.6-0.7 1.5-1.1 2.4-1.1q0.1-0.2 0.1-0.3 0.3-0.4 0.6-0.8 0.2-0.4 0.5-0.9 1-1.8 2-4 0.9-2.2 1.6-4.7 0.7-2.5 1-5.3 0.3-2.7 0.2-5.5-0.1-2.8-0.6-5.5-0.5-2.7-1.4-5.2-0.2-0.6-0.4-1.2-0.1-0.3-0.3-0.6 0-0.1-0.1-0.3 0-0.1-0.1-0.2-0.3-0.6-0.5-1.2-0.1-0.1-0.1-0.3-0.1-0.1-0.2-0.2-0.1-0.3-0.2-0.6-0.2-0.2-0.3-0.5-0.1-0.1-0.2-0.3 0-0.1-0.1-0.2-0.3-0.5-0.6-1-0.2-0.5-0.6-0.9-0.2-0.5-0.5-0.9-0.3-0.5-0.6-0.9-0.2-0.2-0.3-0.4-0.1-0.1-0.2-0.2 0-0.1-0.1-0.1-0.3-0.4-0.6-0.8-0.3-0.3-0.5-0.6-0.6-0.7-1.1-1.2-0.5-0.6-0.9-1-0.4-0.4-0.8-0.8-0.3-0.3-0.6-0.5-0.2-0.2-0.3-0.3-0.2-0.1-0.2-0.1l2.5-2.9q0 0 0.2 0.1 0.1 0.1 0.4 0.4 0.2 0.2 0.6 0.6 0.4 0.3 0.9 0.8 0.4 0.5 1 1.1 0.5 0.6 1.1 1.3 0.4 0.4 0.7 0.7 0.3 0.4 0.6 0.8 0.1 0.2 0.2 0.3 0 0.1 0.1 0.2 0.2 0.2 0.3 0.4 0.4 0.5 0.7 0.9 0.3 0.5 0.6 1 0.4 0.5 0.7 1.1 0.3 0.5 0.6 1.1 0.1 0.1 0.2 0.2 0 0.2 0.1 0.3 0.2 0.3 0.3 0.6 0.2 0.3 0.3 0.6 0.1 0.2 0.2 0.3 0 0.2 0.1 0.3 0.3 0.6 0.6 1.3 0 0.1 0.1 0.3 0.1 0.1 0.1 0.3 0.2 0.3 0.3 0.7 0.3 0.6 0.5 1.3 0.9 2.7 1.5 5.7c0.4 2 0.6 4 0.7 6zm-8.6 23.3c-0.8-0.6-2-0.5-2.6 0.3-0.6 0.8-0.5 2 0.3 2.6 0.8 0.7 2 0.5 2.6-0.3 0.6-0.8 0.5-1.9-0.3-2.6zm-13.4-15.5l1.9 0.7q0 0 0 0.1-0.1 0.1-0.1 0.3-0.1 0.2-0.2 0.4-0.1 0.3-0.2 0.6c-0.4 0.8-0.9 1.8-1.5 2.8q-0.2 0.3-0.4 0.7c0.3 0.6 0.2 1.5-0.3 2.1-0.7 0.9-2 1-2.9 0.3-0.9-0.7-1.1-2-0.4-2.9 0.5-0.6 1.2-0.9 1.9-0.8q0.2-0.2 0.3-0.5c0.6-0.9 1.1-1.8 1.4-2.6q0.1-0.2 0.2-0.5 0.1-0.2 0.1-0.4 0.1-0.1 0.1-0.2 0.1-0.1 0.1-0.1zm-1.7 5.4c-0.5-0.4-1.3-0.3-1.7 0.2-0.5 0.6-0.4 1.3 0.2 1.8 0.5 0.4 1.3 0.3 1.7-0.2 0.5-0.6 0.4-1.4-0.2-1.8zm-25.5-46.7q-0.6 0.2-1.3 0.3l-1.1-3.6q0.7-0.2 1.5-0.4 0.3-0.1 0.7-0.2 0.3 0 0.7-0.1 0.3-0.1 0.7-0.2l0.3-0.1q0.2 0 0.4 0 0.7-0.2 1.4-0.3 0.4 0 0.8-0.1 0.3 0 0.7-0.1 0.3 0 0.7-0.1 0.3 0 0.7 0 0.7-0.1 1.4-0.1 0.7 0 1.4 0 0.7 0 1.4 0 0.3 0 0.6 0 0.4 0 0.7 0c0.9 0.1 1.8 0.2 2.6 0.3q0.3 0 0.6 0.1 0.3 0 0.6 0.1 0.6 0.1 1.2 0.2 0.3 0 0.6 0.1 0.3 0 0.6 0.1 0.5 0.1 1.1 0.3c2.8 0.7 5.1 1.6 6.7 2.3q0.3 0.1 0.5 0.3 0.3 0.1 0.5 0.2 0.5 0.2 0.8 0.4 0.3 0.1 0.5 0.2 0.1 0.1 0.1 0.1l-1.8 3.3q0 0-0.1 0-0.2-0.1-0.4-0.3-0.3-0.1-0.7-0.3-0.2-0.1-0.5-0.2-0.2-0.1-0.5-0.2c-1.4-0.7-3.4-1.5-6-2.2q-0.5-0.1-1-0.2-0.3-0.1-0.5-0.1-0.3-0.1-0.6-0.1-0.5-0.1-1-0.2-0.3-0.1-0.6-0.1-0.3 0-0.6-0.1c-0.7-0.1-1.5-0.1-2.3-0.2q-0.3 0-0.6 0-0.3 0-0.6 0-0.6-0.1-1.3 0-0.6 0-1.2 0-0.7 0-1.3 0.1-0.3 0-0.7 0-0.3 0.1-0.6 0.1-0.3 0-0.6 0.1-0.4 0-0.7 0.1-0.6 0.1-1.3 0.2-0.2 0-0.3 0l-0.3 0.1q-0.4 0.1-0.7 0.2-0.3 0-0.6 0.1-0.4 0.1-0.7 0.2zm14.6 14.6q0.3 0.2 0.3 0.2l-0.5 2q0-0.1-0.4-0.1 0-0.1-0.2-0.1-0.1 0-0.2 0-0.2-0.1-0.5-0.2c-0.8-0.1-1.8-0.3-2.8-0.3-1.1-0.1-2.1 0-2.9 0.1q-0.3 0-0.5 0-0.2 0-0.3 0-0.1 0.1-0.1 0.1-0.4 0-0.4 0l-0.4-2q0.1 0 0.4-0.1 0.1 0 0.2 0 0.2 0 0.3 0 0.3-0.1 0.6-0.1c0.8-0.1 2-0.2 3.2-0.1 0.5 0.1 1.1 0.1 1.7 0.2q0.2 0 0.4 0 0.1 0.1 0.3 0.1 0.4 0.1 0.7 0.1 0.3 0.1 0.6 0.1 0.1 0.1 0.2 0.1 0.2 0 0.3 0zm5.3 4.7q-0.2-0.1-0.3-0.2-0.1-0.1-0.2-0.1-0.2-0.1-0.3-0.2-0.1-0.1-0.2-0.1 0 0-0.1-0.1-0.1 0-0.1 0l1.1-1.8q0 0 0.1 0 0 0.1 0.1 0.1 0 0 0.1 0.1 0.2 0.1 0.4 0.2 0.1 0.1 0.2 0.2 0.2 0.1 0.3 0.2c0.7 0.4 1.7 1.2 2.5 1.9q0.2 0.2 0.3 0.3 0.2 0.2 0.3 0.3 0.3 0.4 0.6 0.6c0.4 0.5 0.7 0.8 1 1.2q0.2 0.2 0.4 0.4 0.1 0.3 0.2 0.4 0.3 0.3 0.3 0.3l-1.7 1.2q0 0-0.2-0.3-0.1-0.1-0.3-0.3-0.1-0.2-0.3-0.4c-0.3-0.3-0.6-0.7-0.9-1.1q-0.2-0.2-0.5-0.5-0.1-0.1-0.3-0.3-0.1-0.1-0.3-0.2c-0.8-0.7-1.6-1.4-2.2-1.8z"/>
	<path id="Layer" fill-rule="evenodd" class="s2" d="m18.1 74.1c-0.5-1.1 0.1-2.3 1.1-2.7 1.1-0.4 2.3 0.1 2.7 1.2 0.3 0.7 0.2 1.4-0.2 2q0.1 0.3 0.2 0.5c0.5 1 1.1 1.9 1.6 2.5q0.2 0.2 0.3 0.4 0.2 0.2 0.3 0.3 0.1 0.2 0.1 0.2 0.1 0.1 0.1 0.1l-1.6 1.4q0 0 0-0.1-0.1-0.1-0.2-0.2-0.1-0.2-0.3-0.4-0.2-0.2-0.4-0.5c-0.5-0.7-1.1-1.7-1.7-2.7q-0.2-0.3-0.3-0.7c-0.8-0.1-1.4-0.6-1.7-1.3zm0.7-0.3c0.3 0.6 1 1 1.7 0.7 0.6-0.3 0.9-1 0.7-1.6-0.3-0.7-1-1-1.7-0.7-0.6 0.2-0.9 0.9-0.7 1.6zm-16.4 4.1c1.6-0.6 3.4 0.2 4 1.8 0.3 0.9 0.3 1.8-0.2 2.6q0.1 0.1 0.2 0.3 0.2 0.4 0.4 0.8 0.3 0.5 0.5 0.9 1 1.8 2.5 3.8 1.4 1.9 3.2 3.8 1.9 1.8 4.1 3.5 2.2 1.6 4.6 2.9 2.5 1.3 5.1 2.2 2.6 0.9 5.1 1.4 0.7 0.1 1.3 0.2 0.3 0.1 0.6 0.1 0.2 0 0.3 0 0.2 0.1 0.3 0.1 0.7 0 1.3 0.1 0.1 0 0.3 0 0.1 0 0.3 0 0.3 0.1 0.6 0.1 0.3 0 0.6 0 0.1 0 0.3 0 0.1 0 0.3 0 0.5 0 1.1 0 0.6 0 1.1 0 0.5 0 1.1-0.1 0.5 0 1-0.1 0.2 0 0.5 0 0.1 0 0.2 0 0.1-0.1 0.2-0.1 0.5-0.1 0.9-0.1 0.5-0.1 0.9-0.2 0.8-0.1 1.6-0.3 0.7-0.2 1.3-0.3 0.5-0.2 1-0.3 0.4-0.1 0.8-0.2 0.3-0.1 0.4-0.2 0.2-0.1 0.2-0.1l1.2 3.6q0 0-0.2 0.1-0.1 0.1-0.5 0.2-0.3 0.1-0.8 0.2-0.5 0.2-1.2 0.4-0.6 0.1-1.4 0.3-0.8 0.2-1.7 0.4-0.5 0.1-1 0.1-0.5 0.1-1 0.2-0.1 0-0.2 0-0.2 0-0.3 0-0.3 0.1-0.5 0.1-0.6 0.1-1.2 0.1-0.5 0-1.1 0.1-0.6 0-1.3 0-0.6 0-1.2 0-0.2 0-0.3 0-0.2 0-0.4 0-0.3 0-0.6 0-0.3-0.1-0.7-0.1-0.1 0-0.3 0-0.2 0-0.3 0-0.7-0.1-1.4-0.2-0.2 0-0.3 0-0.2 0-0.4 0-0.3-0.1-0.7-0.2-0.7-0.1-1.4-0.2-2.8-0.5-5.6-1.5-2.9-1-5.6-2.4c-1.8-1-3.6-2.1-5.2-3.3q-2.4-1.8-4.4-3.9c-1.4-1.3-2.6-2.7-3.6-4.2q-1.6-2.1-2.8-4.1-0.2-0.5-0.5-1-0.3-0.5-0.5-0.9-0.1-0.3-0.2-0.5c-1-0.2-1.8-0.9-2.1-1.8-0.7-1.6 0.1-3.4 1.7-4.1zm-0.6 3.6c0.4 1 1.5 1.4 2.4 1 1-0.3 1.4-1.4 1-2.4-0.3-0.9-1.4-1.4-2.4-1-0.9 0.4-1.4 1.4-1 2.4zm58 14.2c1.2-0.9 3-2.3 4.8-4.3q0.4-0.3 0.7-0.7 0.2-0.2 0.4-0.4 0.1-0.2 0.3-0.4 0.4-0.4 0.7-0.8 0.2-0.3 0.4-0.5 0.1-0.2 0.3-0.4c0.5-0.6 0.9-1.3 1.4-2q0.2-0.2 0.3-0.5 0.2-0.2 0.3-0.5 0.4-0.5 0.7-1.1 0.3-0.5 0.6-1.1 0.3-0.6 0.5-1.1 0.2-0.3 0.3-0.6 0.1-0.3 0.3-0.6 0.1-0.3 0.2-0.6 0.2-0.3 0.3-0.6 0.2-0.7 0.4-1.3 0.1-0.1 0.1-0.3l0.1-0.3q0.1-0.3 0.2-0.6 0.1-0.4 0.2-0.7 0.1-0.3 0.2-0.6 0.2-0.7 0.3-1.3l3.7 0.8q-0.2 0.7-0.3 1.5-0.1 0.3-0.2 0.7-0.1 0.3-0.3 0.7-0.1 0.3-0.2 0.7l-0.1 0.3q0 0.2-0.1 0.4-0.3 0.7-0.5 1.3-0.1 0.4-0.3 0.7-0.1 0.3-0.3 0.7-0.1 0.3-0.2 0.6-0.2 0.4-0.4 0.7-0.3 0.6-0.6 1.3-0.3 0.6-0.6 1.2-0.4 0.6-0.7 1.2-0.2 0.3-0.4 0.6-0.2 0.2-0.4 0.5c-0.5 0.8-1 1.5-1.5 2.1q-0.2 0.3-0.4 0.5-0.1 0.3-0.3 0.5-0.4 0.5-0.8 1-0.2 0.2-0.4 0.4-0.2 0.2-0.4 0.5-0.4 0.4-0.8 0.8c-2 2.1-3.9 3.6-5.3 4.6q-0.3 0.2-0.5 0.4-0.3 0.2-0.5 0.3-0.4 0.3-0.7 0.5-0.3 0.2-0.4 0.3-0.2 0.1-0.2 0.1l-2-3.3q0 0 0.2 0 0.1-0.1 0.4-0.3 0.2-0.2 0.6-0.4 0.2-0.2 0.4-0.3 0.2-0.2 0.5-0.3zm-49.1-12.5c-1-2.1-0.2-4.7 1.9-5.8 2.2-1.1 4.7-0.2 5.8 1.9 0.6 1.1 0.6 2.4 0.2 3.4q0.5 0.7 1.2 1.4 0 0.1 0.1 0.2 0.1 0.1 0.2 0.1 0.2 0.2 0.4 0.4 0.1 0.2 0.3 0.4 0.2 0.1 0.4 0.3 0.2 0.2 0.4 0.4 0.1 0.1 0.2 0.1 0.1 0.1 0.2 0.2 0.2 0.2 0.4 0.4 0.2 0.1 0.4 0.3 0.5 0.3 0.9 0.7 0.3 0.1 0.5 0.3 0.2 0.1 0.5 0.3 0.5 0.3 1 0.6 0.2 0.1 0.5 0.3 0.3 0.1 0.5 0.3 1.1 0.5 2.3 1 0.6 0.2 1.2 0.4 0.3 0.1 0.6 0.2 0.1 0.1 0.3 0.1 0.1 0.1 0.3 0.1 0.3 0.1 0.6 0.2 0.3 0.1 0.7 0.2h0.1 0.2q0.1 0.1 0.3 0.1 0.3 0.1 0.7 0.1l0.1 0.1h0.2q0.2 0 0.3 0.1 0.4 0 0.7 0.1 0.2 0 0.3 0 0.2 0 0.4 0 0.3 0.1 0.7 0.1c3.6 0.3 7.6-0.2 11.3-1.7 1.9-0.7 3.7-1.7 5.4-2.9 1.7-1.2 3.3-2.6 4.7-4.2q0.3-0.3 0.5-0.6l0.3-0.3 0.2-0.3q0.3-0.3 0.5-0.6 0.2-0.4 0.5-0.7c0.3-0.4 0.5-0.9 0.8-1.4l0.1-0.1 0.1-0.2 0.4-0.7q0.1-0.2 0.2-0.4 1.4-2.8 2.2-6l4.7 1.1c-0.5 2.5-1.4 4.9-2.6 7.2q-0.1 0.2-0.2 0.4l-0.2 0.4-0.2 0.4-0.2 0.2-0.1 0.2c-0.3 0.6-0.6 1.1-1 1.7q-0.3 0.3-0.5 0.7-0.3 0.4-0.6 0.8l-0.3 0.4-0.3 0.3q-0.3 0.4-0.6 0.8c-1.7 1.8-3.6 3.5-5.6 4.9-2 1.4-4.2 2.6-6.4 3.5-4.4 1.7-9.1 2.3-13.5 2-4.4-0.4-8.4-1.6-11.8-3.4q-0.3-0.1-0.6-0.3-0.3-0.2-0.7-0.4-0.6-0.3-1.1-0.7-0.3-0.2-0.6-0.4-0.3-0.1-0.6-0.3-0.5-0.4-1-0.8-0.3-0.2-0.5-0.4-0.3-0.2-0.5-0.4-0.2-0.1-0.3-0.2-0.1-0.1-0.2-0.2-0.3-0.3-0.5-0.5-0.2-0.2-0.4-0.4-0.3-0.2-0.5-0.4-0.2-0.2-0.4-0.4-0.1-0.1-0.2-0.2-0.1-0.1-0.2-0.3-0.9-0.9-1.6-1.8c-1.6 0-3.1-0.9-3.9-2.4zm1.6-0.8c0.6 1.3 2.1 1.8 3.4 1.2 1.3-0.7 1.8-2.2 1.2-3.5-0.7-1.3-2.2-1.8-3.5-1.2-1.3 0.7-1.8 2.2-1.1 3.5zm41-1.1l-1.4-1.5q0 0 0.2-0.3 0.1 0 0.2-0.1 0-0.1 0.1-0.2 0.2-0.1 0.4-0.4c0.5-0.6 1.1-1.4 1.7-2.3 0.6-0.8 1.1-1.8 1.4-2.5q0.1-0.3 0.2-0.5 0-0.1 0.1-0.2 0-0.1 0-0.2 0.2-0.3 0.2-0.3l1.9 0.7q0 0-0.1 0.4-0.1 0.1-0.1 0.2-0.1 0.1-0.1 0.2-0.1 0.2-0.2 0.5c-0.4 0.8-0.9 1.9-1.6 2.9q-0.4 0.7-0.9 1.4-0.2 0.1-0.3 0.3-0.1 0.1-0.2 0.3-0.3 0.3-0.5 0.5-0.2 0.2-0.4 0.4-0.1 0.1-0.2 0.2 0 0.1-0.1 0.2-0.3 0.3-0.3 0.3zm-12.9 5.9l-0.2-2q0 0 0.3-0.1 0.2 0 0.5 0 0.2 0 0.5-0.1c0.4 0 0.8-0.1 1.3-0.2q0.4-0.1 0.7-0.2 0.2-0.1 0.4-0.1 0.2-0.1 0.4-0.1c1-0.4 1.9-0.8 2.7-1.1q0.1-0.1 0.2-0.2 0.1 0 0.2-0.1 0.2-0.1 0.4-0.2 0.1 0 0.1 0 0.1-0.1 0.1-0.1 0.1 0 0.1 0l1 1.7q0 0 0 0.1-0.1 0-0.1 0.1-0.1 0-0.2 0-0.2 0.1-0.4 0.3-0.1 0-0.3 0.1-0.1 0.1-0.2 0.1c-0.8 0.4-1.9 0.9-3 1.2q-0.2 0.1-0.4 0.2-0.2 0-0.4 0.1-0.4 0.1-0.8 0.2c-0.6 0.1-1.1 0.2-1.5 0.2q-0.3 0.1-0.6 0.1-0.3 0.1-0.4 0.1-0.4 0-0.4 0zm-13.7-3.6q-0.1-0.1-0.1-0.1l1.2-1.7q0 0 0.1 0.1 0 0 0.2 0.1 0.1 0.1 0.3 0.2 0.2 0.2 0.5 0.3 0.2 0.2 0.5 0.3 0.3 0.2 0.7 0.4 0.1 0 0.3 0.1 0.2 0.1 0.3 0.2 0.4 0.2 0.7 0.3c1 0.4 2 0.7 2.8 0.9q0.3 0.1 0.5 0.1 0.3 0.1 0.4 0.1 0.4 0.1 0.4 0.1l-0.4 2q0 0-0.4-0.1-0.1 0-0.4-0.1-0.3 0-0.6-0.1c-0.8-0.2-2-0.5-3-1q-0.4-0.2-0.8-0.3-0.2-0.1-0.4-0.2-0.2-0.1-0.4-0.2-0.3-0.2-0.7-0.4-0.3-0.2-0.6-0.3-0.3-0.2-0.5-0.3-0.2-0.2-0.4-0.3-0.1-0.1-0.2-0.1z"/>
	<g id="Clip-Path" clip-path="url(#cp1)">
		<g id="Layer">
			<path id="Layer" fill-rule="evenodd" class="s3" d="m70.7 15.7c-0.3 1.7-1.8 2.9-3.5 2.6-1-0.1-1.7-0.7-2.2-1.5q-0.1 0-0.3 0-0.5 0-1 0-0.5 0-1 0c-1.4 0-2.9 0-4.4 0.2q-2.4 0.3-4.9 1-2.6 0.7-5.1 1.7-2.5 1.1-4.9 2.6-2.3 1.5-4.4 3.3-2.1 1.8-3.7 3.8-0.5 0.5-0.9 1-0.2 0.2-0.4 0.5-0.1 0.1-0.1 0.2-0.1 0.2-0.2 0.3-0.4 0.5-0.8 1 0 0.1-0.1 0.2-0.1 0.2-0.2 0.3-0.2 0.3-0.3 0.5-0.2 0.3-0.3 0.5-0.1 0.1-0.2 0.3-0.1 0.1-0.1 0.2-0.3 0.5-0.6 1-0.3 0.5-0.5 1-0.3 0.5-0.5 0.9-0.2 0.5-0.4 1-0.1 0.2-0.2 0.4-0.1 0.1-0.1 0.2-0.1 0.1-0.1 0.2-0.2 0.5-0.4 0.9-0.1 0.4-0.3 0.8-0.2 0.8-0.5 1.5-0.2 0.7-0.3 1.3-0.2 0.6-0.3 1.1-0.1 0.4-0.2 0.8-0.1 0.3-0.1 0.4 0 0.2 0 0.2l-3.7-0.7q0 0 0-0.2 0.1-0.2 0.1-0.5 0.1-0.4 0.2-0.9 0.1-0.5 0.3-1.2 0.2-0.6 0.4-1.4 0.3-0.8 0.6-1.6 0.1-0.5 0.3-1 0.2-0.4 0.4-0.9 0-0.1 0.1-0.2 0-0.2 0.1-0.3 0.1-0.2 0.2-0.5 0.2-0.5 0.5-1 0.2-0.5 0.5-1.1 0.3-0.5 0.6-1 0.3-0.6 0.6-1.1 0.1-0.2 0.2-0.3 0.1-0.2 0.2-0.3 0.1-0.3 0.3-0.5 0.2-0.3 0.4-0.6 0.1-0.1 0.2-0.3 0-0.1 0.1-0.3 0.4-0.5 0.8-1.1 0.1-0.1 0.2-0.3 0.2-0.1 0.3-0.2 0.2-0.3 0.4-0.6 0.4-0.5 0.9-1.1 1.9-2.2 4.1-4.2 2.3-1.9 4.9-3.6 2.6-1.6 5.4-2.8 2.8-1.2 5.6-2 2.8-0.7 5.4-1c1.7-0.2 3.4-0.3 4.9-0.3q0.6 0 1.1 0 0.6 0 1.1 0 0.3 0.1 0.5 0.1c0.7-0.7 1.7-1.1 2.7-0.9 1.7 0.2 2.8 1.8 2.6 3.5zm-4.5 15.5c1.1 0.2 1.9 1.3 1.7 2.4-0.2 1.1-1.2 1.9-2.3 1.8-0.8-0.1-1.4-0.6-1.7-1.3q-0.3 0-0.6 0c-1-0.1-2.1 0-2.9 0.1q-0.3 0-0.5 0.1-0.2 0-0.4 0-0.2 0.1-0.3 0.1-0.1 0-0.1 0l-0.3-2q0 0 0.1-0.1 0.1 0 0.3 0 0.1 0 0.4-0.1 0.3 0 0.6-0.1c0.9-0.1 2-0.1 3.2-0.1q0.4 0 0.8 0.1c0.4-0.6 1.2-1 2-0.9zm1.7-17.8c-1-0.2-1.9 0.5-2.1 1.6-0.1 1 0.6 1.9 1.6 2.1 1 0.1 1.9-0.6 2.1-1.6 0.1-1-0.6-2-1.6-2.1zm-1.9 18.7c-0.6-0.1-1.3 0.3-1.4 1-0.1 0.7 0.4 1.3 1.1 1.4 0.7 0.1 1.3-0.3 1.4-1 0.1-0.7-0.4-1.3-1.1-1.4zm-39.3 24.6c0.2 1.6 0.5 3.8 1.2 6.3q0.2 0.5 0.3 1 0.1 0.3 0.2 0.5 0.1 0.3 0.2 0.5 0.1 0.5 0.3 1.1 0.1 0.2 0.2 0.5 0.1 0.3 0.3 0.5c0.2 0.7 0.6 1.4 0.9 2.2q0.2 0.2 0.3 0.5 0.2 0.3 0.3 0.6 0.3 0.5 0.6 1 0.3 0.6 0.7 1.1 0.3 0.6 0.7 1.1 0.2 0.3 0.3 0.5 0.2 0.3 0.4 0.5 0.2 0.3 0.4 0.6 0.2 0.2 0.4 0.5 0.4 0.5 0.9 1 0.1 0.1 0.2 0.3l0.2 0.2q0.2 0.3 0.5 0.5 0.2 0.2 0.4 0.5 0.2 0.2 0.5 0.5 0.5 0.4 0.9 0.9l-2.5 2.8q-0.6-0.6-1.1-1.1-0.3-0.2-0.5-0.5-0.3-0.3-0.5-0.5-0.3-0.3-0.5-0.6l-0.2-0.2q-0.2-0.2-0.3-0.3-0.5-0.6-0.9-1.1-0.2-0.3-0.5-0.6-0.2-0.3-0.4-0.6-0.2-0.3-0.4-0.6-0.2-0.3-0.4-0.6-0.4-0.5-0.8-1.1-0.4-0.6-0.7-1.2-0.4-0.6-0.7-1.2-0.2-0.3-0.3-0.6-0.2-0.3-0.3-0.6c-0.4-0.8-0.8-1.6-1.1-2.4q-0.1-0.3-0.3-0.6-0.1-0.3-0.2-0.6-0.2-0.6-0.4-1.1-0.1-0.3-0.2-0.6-0.1-0.3-0.2-0.5-0.1-0.6-0.3-1.1c-0.8-2.9-1.2-5.3-1.3-7q-0.1-0.3-0.1-0.6 0-0.3 0-0.6-0.1-0.5-0.1-0.8 0-0.4 0-0.5 0-0.2 0-0.2l3.7-0.1q0 0 0.1 0.1 0 0.2 0 0.5 0 0.3 0 0.8 0 0.2 0.1 0.4 0 0.3 0 0.6zm35.3-36.4c2.4 0.1 4.2 2.2 4 4.6-0.1 2.3-2.1 4.2-4.5 4-1.2-0.1-2.3-0.7-3.1-1.5q-0.8 0.1-1.7 0.3-0.1 0-0.2 0.1-0.2 0-0.3 0-0.2 0.1-0.5 0.2-0.2 0-0.5 0.1-0.2 0.1-0.5 0.1-0.2 0.1-0.5 0.2-0.1 0.1-0.2 0.1-0.1 0-0.3 0.1-0.2 0.1-0.5 0.2-0.2 0.1-0.5 0.2-0.5 0.2-1 0.4-0.2 0.2-0.5 0.3-0.2 0.1-0.5 0.2-0.5 0.3-1 0.6-0.3 0.2-0.5 0.3-0.3 0.2-0.5 0.3-1.1 0.7-2.1 1.5-0.4 0.4-0.9 0.8-0.3 0.2-0.5 0.4-0.1 0.1-0.2 0.2-0.2 0.1-0.3 0.3-0.2 0.2-0.5 0.4-0.2 0.2-0.4 0.5l-0.1 0.1-0.1 0.1q-0.1 0.2-0.3 0.3-0.2 0.2-0.4 0.5l-0.1 0.1-0.1 0.1q-0.1 0.2-0.2 0.3-0.2 0.3-0.4 0.5-0.2 0.2-0.3 0.3-0.1 0.2-0.2 0.3-0.2 0.3-0.4 0.6c-2 3-3.6 6.7-4.2 10.7-0.3 2-0.3 4.1-0.2 6.1 0.2 2.1 0.6 4.2 1.3 6.2q0.1 0.4 0.3 0.8l0.1 0.3 0.2 0.4q0.1 0.4 0.3 0.7 0.1 0.4 0.3 0.8c0.2 0.4 0.5 0.9 0.7 1.4l0.1 0.2 0.1 0.1 0.5 0.7q0.1 0.2 0.2 0.4 1.7 2.7 4.1 4.9l-3.3 3.6c-1.9-1.8-3.5-3.8-4.9-5.9q-0.2-0.2-0.3-0.4l-0.2-0.4-0.3-0.4-0.1-0.2-0.1-0.2c-0.3-0.6-0.6-1.1-0.9-1.7q-0.2-0.4-0.4-0.9-0.2-0.4-0.4-0.9l-0.1-0.4-0.2-0.4q-0.2-0.5-0.3-0.9c-0.8-2.4-1.3-4.9-1.5-7.3-0.2-2.5-0.1-5 0.2-7.3 0.7-4.8 2.5-9.2 5-12.8 2.5-3.6 5.6-6.5 8.8-8.6q0.3-0.2 0.6-0.4 0.3-0.2 0.6-0.3 0.6-0.4 1.2-0.7 0.3-0.2 0.7-0.3 0.3-0.2 0.6-0.3 0.6-0.3 1.2-0.5 0.3-0.2 0.6-0.3 0.3-0.1 0.6-0.2 0.1-0.1 0.3-0.1 0.1-0.1 0.3-0.1 0.3-0.1 0.6-0.2 0.3-0.1 0.6-0.2 0.2-0.1 0.5-0.2 0.3 0 0.6-0.1 0.2-0.1 0.3-0.1 0.1 0 0.3-0.1 1.2-0.3 2.4-0.4c0.8-1.4 2.3-2.3 4-2.2zm-0.1 1.7c-1.4-0.1-2.6 1-2.7 2.5-0.1 1.4 1 2.6 2.4 2.7 1.4 0.1 2.6-1 2.7-2.4 0.1-1.5-1-2.7-2.4-2.8zm-19.5 36.3l2-0.5q0 0 0 0.3 0.1 0.1 0.1 0.2 0 0.1 0.1 0.2 0 0.3 0.1 0.6c0.3 0.7 0.7 1.7 1.1 2.6 0.5 0.9 1.1 1.8 1.5 2.5q0.2 0.2 0.4 0.4 0 0.1 0.1 0.2 0.1 0.1 0.1 0.1 0.2 0.3 0.2 0.3l-1.5 1.3q0 0-0.3-0.3-0.1-0.1-0.1-0.1-0.1-0.1-0.2-0.2-0.1-0.3-0.3-0.5c-0.5-0.7-1.2-1.7-1.7-2.7-0.3-0.6-0.5-1.1-0.7-1.6q-0.1-0.2-0.2-0.4 0-0.2-0.1-0.3-0.1-0.4-0.2-0.7-0.1-0.3-0.2-0.6 0-0.1-0.1-0.2 0-0.1 0-0.2-0.1-0.4-0.1-0.4zm1.3-14.2l1.9 0.8q0 0.1-0.2 0.4-0.1 0.1-0.2 0.3 0 0.3-0.2 0.5c-0.1 0.4-0.2 0.8-0.4 1.3q-0.1 0.4-0.2 0.7-0.1 0.2-0.1 0.4 0 0.2-0.1 0.4c-0.2 1-0.4 2.1-0.4 2.9q0 0.1 0 0.3 0 0.1 0 0.2 0 0.3 0 0.4 0 0.1 0 0.2 0 0 0 0.1 0 0.1 0 0.1h-2.1q0 0 0-0.1 0-0.1 0-0.1 0-0.1 0-0.2 0-0.2 0-0.5 0-0.1 0-0.3 0-0.1 0-0.3c0.1-0.8 0.2-2 0.5-3.1q0-0.3 0.1-0.5 0-0.2 0.1-0.4 0.1-0.4 0.2-0.8c0.2-0.5 0.4-1 0.5-1.4q0.1-0.3 0.2-0.6 0.2-0.2 0.2-0.4 0.2-0.3 0.2-0.3zm10-10.1q0.1 0 0.1 0l0.9 1.8q0 0-0.1 0.1-0.1 0-0.3 0.1-0.1 0.1-0.3 0.2-0.2 0.1-0.5 0.2-0.3 0.2-0.6 0.4-0.2 0.1-0.5 0.3-0.2 0.1-0.4 0.2-0.1 0.1-0.3 0.3-0.3 0.2-0.6 0.4c-0.8 0.7-1.6 1.4-2.1 2q-0.2 0.2-0.4 0.4-0.2 0.1-0.3 0.3-0.2 0.2-0.2 0.3l-1.6-1.4q0 0 0.3-0.3 0.1-0.1 0.3-0.3 0.1-0.2 0.4-0.5c0.6-0.6 1.4-1.4 2.3-2.1q0.4-0.3 0.7-0.5 0.2-0.2 0.4-0.3 0.2-0.1 0.3-0.2 0.4-0.2 0.7-0.4 0.3-0.2 0.6-0.4 0.3-0.1 0.5-0.3 0.3-0.1 0.4-0.2 0.2 0 0.3-0.1z"/>
		</g>
	</g>
</svg>