<svg version="1.2" xmlns="http://www.w3.org/2000/svg" viewBox="0 0 375 310" width="375" height="310">
	<title>Eucrona-svg</title>
	<defs>
		<clipPath clipPathUnits="userSpaceOnUse" id="cp1">
			<path d="m4.79 7.5h365.25v231.67h-365.25z"/>
		</clipPath>
	</defs>
	<style>
		.s0 { fill: #39a9f1 } 
	</style>
	<path id="Layer" class="s0" d="m89.5 200.8c-24.9-0.1-45.8-19.8-46.2-44.7-0.5-25.5 20.1-46.3 45.5-46.3 0.7 0 1.7 0 2.6 0.1h0.1c13.4 1 25.6-7.3 29.7-20.1 7.5-25.9 31.6-44 58.6-44 19.5 0 37.4 9.1 49.1 24.9 6.6 8.9 17.8 13.1 28.7 10.7 4.6-1.1 9.2-1.6 13.5-1.6 33.6 0 61 27.6 60.5 61.4-0.5 33.2-28.2 59.5-61.5 59.5 0 0-180.6 0-180.6 0z"/>
	<g id="Clip-Path" clip-path="url(#cp1)">
		<g id="Layer">
			<path id="Layer" fill-rule="evenodd" class="s0" d="m271.1 239.2h-182.3c-46.3 0-84-37.7-84-83.9 0-45.7 36.6-82.9 82-83.9 14.6-38.1 51.7-64 92.9-64 29.2 0 57.1 13.1 75.9 35.3q7.8-1.3 15.5-1.3c54.5 0 98.9 44.4 98.9 98.9 0 54.5-44.4 98.9-98.9 98.9zm-182.3-147.1c-35.2 0-63.7 28.9-63.2 64.1 0.5 34.7 29.5 62.2 64.1 62.2h180.4c43 0 78.7-34.4 79.1-77.4 0.4-43.4-34.8-78.8-78.1-78.8-5.7 0-11.5 0.7-17.4 2-4 0.9-8.2-0.7-10.7-4-15-20.3-38.1-32-63.2-32-34.8 0-65.9 23.3-75.6 56.7-1.3 4.7-5.8 7.8-10.7 7.5-2-0.1-3.4-0.3-4.7-0.3z"/>
		</g>
	</g>
	<g id="Layer">
		<g id="Layer">
			<g id="Layer">
				<path id="Layer" class="s0" d="m52.5 255.4h27.8v7.5h-19.4v8.4h17.7v7.5h-17.7v8.7h19.8v7.5h-28.2z"/>
			</g>
		</g>
	</g>
	<g id="Layer">
		<g id="Layer">
			<g id="Layer">
				<path id="Layer" class="s0" d="m85.9 280.1v-24.7h8.5v24.3c0 6.2 3.6 8.4 8.8 8.4 5.3 0 8.9-2.2 8.9-8.4v-24.3h8.5v24.7c0 11.7-8.6 15.7-17.4 15.7-8.7 0-17.3-4-17.3-15.7z"/>
			</g>
		</g>
	</g>
	<g id="Layer">
		<g id="Layer">
			<g id="Layer">
				<path id="Layer" class="s0" d="m125.4 275.6c0-14.4 10.6-21 21.2-21 4 0 7.9 0.9 11.4 2.6v8.1c-2.6-2-6.3-3.1-10-3.1-6.9 0-13.9 3.9-13.9 13.4 0 8.7 7.1 12.6 13.9 12.6 4.1 0 7.8-1.2 10.3-3.3v8.3c-3.4 1.7-7.4 2.6-11.6 2.6-10.5 0-21.3-6.4-21.3-20.2z"/>
			</g>
		</g>
	</g>
	<g id="Layer">
		<g id="Layer">
			<g id="Layer">
				<path id="Layer" fill-rule="evenodd" class="s0" d="m163.4 255.4h16.3c7.7 0 15.7 2.9 15.7 12.9 0 6.8-3.8 10.2-8.6 11.7l11.8 15h-9.8l-10.7-13.9h-6.2v13.9h-8.5zm16.6 18.6c3.7 0 6.7-1.5 6.7-5.6 0-4-3-5.6-6.7-5.6h-8.1v11.2z"/>
			</g>
		</g>
	</g>
	<g id="Layer">
		<g id="Layer">
			<g id="Layer">
				<path id="Layer" fill-rule="evenodd" class="s0" d="m199.9 275.2c0-10.8 7-20.6 21.1-20.6 14 0 21 9.8 21 20.6 0 10.7-7 20.6-21 20.6-14.1 0-21.1-9.9-21.1-20.6zm33.4 0c0-7-4.2-12.7-12.3-12.7-8.2 0-12.4 5.7-12.4 12.7 0 6.9 4.2 12.7 12.4 12.7 8.1 0 12.3-5.8 12.3-12.7z"/>
			</g>
		</g>
	</g>
	<g id="Layer">
		<g id="Layer">
			<g id="Layer">
				<path id="Layer" class="s0" d="m247.1 255.4h8l18.3 25.8c-0.1-1.6-0.1-3.6-0.1-5.5v-20.3h8.5v39.6h-8l-18.3-25.8c0.1 1.6 0.1 3.6 0.1 5.4v20.4h-8.5z"/>
			</g>
		</g>
	</g>
	<g id="Layer">
		<g id="Layer">
			<g id="Layer">
				<path id="Layer" fill-rule="evenodd" class="s0" d="m326.6 295h-8.8l-2.9-7.4h-18.1l-2.9 7.4h-8.8l16.1-39.6h9.3zm-14.4-14.5l-5.5-14.1c-0.3-0.8-0.5-1.5-0.9-2.9-0.3 1.4-0.5 2.1-0.9 2.9l-5.5 14.1z"/>
			</g>
		</g>
	</g>
</svg>