<svg version="1.2" xmlns="http://www.w3.org/2000/svg" viewBox="0 0 375 250" width="375" height="250">
	<title>Eucrona-svg</title>
	<defs>
		<clipPath clipPathUnits="userSpaceOnUse" id="cp1">
			<path d="m2.39 7.04h370.48v234.75h-370.48z"/>
		</clipPath>
	</defs>
	<style>
		.s0 { fill: #39a9f1 } 
	</style>
	<path id="Layer" class="s0" d="m88.4 202.9c-25.2 0-46.4-20-46.9-45.2-0.5-25.8 20.4-47 46.1-47 0.8 0 1.7 0.1 2.8 0.2 13.5 1 26-7.5 30.1-20.4 7.6-26.2 32-44.6 59.4-44.6 19.7 0 37.9 9.2 49.7 25.2 6.7 9.1 18.2 13.3 29.2 10.9 4.6-1.1 9.2-1.6 13.6-1.6 34.1 0 61.9 28 61.3 62.2-0.5 33.6-28.6 60.3-62.2 60.3h-183.1z"/>
	<g id="Clip-Path" clip-path="url(#cp1)">
		<g id="Layer">
			<path id="Layer" fill-rule="evenodd" class="s0" d="m272.4 241.8h-184.8c-46.9 0-85.1-38.1-85.1-85 0-46.2 37.2-83.9 83.2-85 14.8-38.5 52.4-64.8 94.1-64.8 29.6 0 57.9 13.3 76.9 35.7q8-1.2 15.7-1.2c55.3 0 100.3 44.9 100.3 100.1 0 55.2-45 100.2-100.3 100.2zm-184.8-148.9c-35.6 0-64.5 29.2-64 64.9 0.6 35.1 29.9 62.9 65 62.9h182.8c43.6 0 79.8-34.7 80.2-78.3 0.4-44-35.3-79.9-79.2-79.9-5.7 0-11.6 0.7-17.6 2-4.1 1-8.3-0.6-10.8-4-15.3-20.6-38.6-32.4-64.1-32.4-35.3 0-66.8 23.6-76.6 57.4-1.4 4.8-5.9 7.9-10.9 7.6-2-0.1-3.4-0.2-4.8-0.2z"/>
		</g>
	</g>
</svg>