<svg version="1.2" xmlns="http://www.w3.org/2000/svg" viewBox="0 0 375 120" width="375" height="120">
	<title>Eucrona-svg</title>
	<defs>
		<clipPath clipPathUnits="userSpaceOnUse" id="cp1">
			<path d="m1.5 3.93h170.25v107.96h-170.25z"/>
		</clipPath>
	</defs>
	<style>
		.s0 { fill: #39a9f1 } 
	</style>
	<path id="Layer" class="s0" d="m41 94c-11.6 0-21.3-9.2-21.6-20.8-0.2-11.9 9.4-21.6 21.2-21.6 0.4 0 0.8 0 1.3 0.1 6.2 0.4 12-3.4 13.8-9.4 3.5-12.1 14.8-20.5 27.4-20.5 9.1 0 17.4 4.2 22.8 11.6 3.1 4.2 8.4 6.1 13.4 5 2.2-0.5 4.3-0.8 6.3-0.8 15.7 0 28.5 12.9 28.2 28.6-0.2 15.5-13.1 27.8-28.6 27.8 0 0-84.2 0-84.2 0z"/>
	<g id="Clip-Path" clip-path="url(#cp1)">
		<g id="Layer">
			<path id="Layer" fill-rule="evenodd" class="s0" d="m125.6 111.9h-85c-21.5 0-39.1-17.5-39.1-39.1 0-21.3 17.1-38.6 38.3-39.1 6.7-17.7 24-29.8 43.3-29.8 13.5 0 26.5 6.1 35.3 16.4q3.7-0.6 7.2-0.6c25.4 0 46.1 20.7 46.1 46.1 0 25.4-20.7 46.1-46.1 46.1zm-85-68.5c-16.3 0-29.6 13.4-29.4 29.8 0.3 16.2 13.7 29 29.9 29h84c20.1 0 36.7-16 36.9-36 0.2-20.3-16.2-36.8-36.4-36.8-2.6 0-5.3 0.3-8.1 1-1.9 0.4-3.8-0.3-4.9-1.9-7.1-9.5-17.8-14.9-29.5-14.9-16.3 0-30.7 10.8-35.2 26.4-0.7 2.2-2.8 3.6-5 3.5-1-0.1-1.6-0.1-2.3-0.1z"/>
		</g>
	</g>
	<g id="Layer">
		<g id="Layer">
			<g id="Layer">
				<path id="Layer" class="s0" d="m181.5 48.8h19.4v5.2h-13.5v5.8h12.4v5.3h-12.4v6.1h13.8v5.2h-19.7z"/>
			</g>
		</g>
	</g>
	<g id="Layer">
		<g id="Layer">
			<g id="Layer">
				<path id="Layer" class="s0" d="m204.8 66v-17.2h5.9v16.9c0 4.3 2.6 5.9 6.2 5.9 3.7 0 6.2-1.6 6.2-5.9v-16.9h5.9v17.2c0 8.2-6 10.9-12.1 10.9-6.1 0-12.1-2.7-12.1-10.9z"/>
			</g>
		</g>
	</g>
	<g id="Layer">
		<g id="Layer">
			<g id="Layer">
				<path id="Layer" class="s0" d="m232.4 62.9c0-10.1 7.4-14.7 14.8-14.7 2.8 0 5.5 0.6 7.9 1.8v5.7c-1.8-1.5-4.4-2.2-6.9-2.2-4.8 0-9.7 2.7-9.8 9.4 0 6.1 5 8.7 9.8 8.7 2.8 0 5.4-0.8 7.1-2.2v5.8c-2.3 1.1-5.1 1.7-8 1.7-7.4 0-14.9-4.4-14.9-14z"/>
			</g>
		</g>
	</g>
	<g id="Layer">
		<g id="Layer">
			<g id="Layer">
				<path id="Layer" fill-rule="evenodd" class="s0" d="m258.9 48.8h11.4c5.3 0 10.9 2 10.9 8.9 0 4.8-2.6 7.2-6 8.3l8.3 10.4h-6.9l-7.4-9.7h-4.4v9.7h-5.9zm11.6 13c2.5 0 4.7-1.1 4.7-3.9 0-2.9-2.2-3.9-4.7-3.9h-5.7v7.8z"/>
			</g>
		</g>
	</g>
	<g id="Layer">
		<g id="Layer">
			<g id="Layer">
				<path id="Layer" fill-rule="evenodd" class="s0" d="m284.4 62.6c0-7.5 4.9-14.4 14.7-14.4 9.8 0 14.7 6.9 14.7 14.4 0 7.5-4.9 14.3-14.7 14.3-9.8 0-14.7-6.8-14.7-14.3zm23.3 0c0-4.9-2.9-8.9-8.6-8.9-5.7 0-8.6 4-8.6 8.9 0 4.8 2.9 8.8 8.6 8.8 5.7 0 8.6-4 8.6-8.8z"/>
			</g>
		</g>
	</g>
	<g id="Layer">
		<g id="Layer">
			<g id="Layer">
				<path id="Layer" class="s0" d="m317.3 48.8h5.6l12.8 17.9c-0.1-1.1-0.1-2.5-0.1-3.8v-14.1h5.9v27.6h-5.6l-12.7-18c0 1.1 0 2.5 0 3.8v14.2h-5.9z"/>
			</g>
		</g>
	</g>
	<g id="Layer">
		<g id="Layer">
			<g id="Layer">
				<path id="Layer" fill-rule="evenodd" class="s0" d="m372.8 76.4h-6.2l-2-5.2h-12.6l-2 5.2h-6.2l11.3-27.6h6.4zm-10-10.1l-3.8-9.9c-0.2-0.5-0.4-1.1-0.6-2-0.3 0.9-0.4 1.5-0.7 2l-3.8 9.9z"/>
			</g>
		</g>
	</g>
</svg>